<svg width="320" height="72" viewBox="0 0 320 72" fill="none" xmlns="http://www.w3.org/2000/svg">
  <rect x="1.5" y="1.5" width="317" height="69" rx="16.5" fill="white" stroke="#E7E5E4" stroke-width="3"/>
  <path d="M36 48V23H43.2L52.35 39.2L61.45 23H68.65V48H61.95V34.8L56.2 45H48.4L42.7 34.8V48H36Z" fill="#111111"/>
  <path d="M80.25 48V23H98.15V28.6H86.95V33H97.1V38.3H86.95V42.4H98.15V48H80.25Z" fill="#111111"/>
  <path d="M102.75 48L113.15 23H120.7L131.1 48H123.95L122.1 43.15H111.7L109.85 48H102.75ZM113.75 37.95H120.05L116.9 29.7L113.75 37.95Z" fill="#111111"/>
  <path d="M135.55 48V23H142.4L154.2 38.25V23H160.9V48H154.1L142.25 32.45V48H135.55Z" fill="#111111"/>
  <path d="M177.9 48.5C175.233 48.5 172.85 48.0833 170.75 47.25C168.65 46.3833 166.95 45.15 165.65 43.55C164.383 41.95 163.667 40.05 163.5 37.85H170.65C170.817 39.0833 171.417 40.1 172.45 40.9C173.517 41.6667 174.9 42.05 176.6 42.05C178.133 42.05 179.3 41.75 180.1 41.15C180.933 40.55 181.35 39.7667 181.35 38.8C181.35 37.7667 180.883 37.0167 179.95 36.55C179.017 36.0833 177.517 35.5833 175.45 35.05C173.55 34.55 171.983 34.05 170.75 33.55C169.55 33.0167 168.5 32.25 167.6 31.25C166.733 30.2167 166.3 28.85 166.3 27.15C166.3 25.6167 166.7 24.2 167.5 22.9C168.333 21.6 169.55 20.5667 171.15 19.8C172.783 19.0333 174.75 18.65 177.05 18.65C180.45 18.65 183.167 19.4667 185.2 21.1C187.267 22.7333 188.433 24.9667 188.7 27.8H181.95C181.85 26.7667 181.367 25.95 180.5 25.35C179.667 24.7167 178.517 24.4 177.05 24.4C175.617 24.4 174.533 24.6667 173.8 25.2C173.1 25.7 172.75 26.4167 172.75 27.35C172.75 28.3833 173.217 29.15 174.15 29.65C175.117 30.15 176.6 30.65 178.6 31.15C180.567 31.6833 182.15 32.2167 183.35 32.75C184.55 33.25 185.583 34.0167 186.45 35.05C187.35 36.05 187.817 37.4 187.85 39.1C187.85 40.7 187.417 42.15 186.55 43.45C185.717 44.75 184.483 45.7833 182.85 46.55C181.25 47.3167 179.6 48.5 177.9 48.5Z" fill="#111111"/>
  <path d="M193.25 48V23H200.1L211.9 38.25V23H218.6V48H211.8L199.95 32.45V48H193.25Z" fill="#111111"/>
  <path d="M235.25 48.5C232.85 48.5 230.65 48.0833 228.65 47.25C226.683 46.4167 224.967 45.25 223.5 43.75C222.067 42.2167 220.95 40.4333 220.15 38.4C219.383 36.3667 219 34.1667 219 31.8C219 29.4333 219.383 27.25 220.15 25.25C220.95 23.2167 222.067 21.45 223.5 19.95C224.967 18.4167 226.683 17.2333 228.65 16.4C230.65 15.5667 232.85 15.15 235.25 15.15C237.683 15.15 239.883 15.5667 241.85 16.4C243.85 17.2333 245.567 18.4167 247 19.95C248.467 21.45 249.583 23.2167 250.35 25.25C251.15 27.25 251.55 29.4333 251.55 31.8C251.55 34.1667 251.15 36.3667 250.35 38.4C249.583 40.4333 248.467 42.2167 247 43.75C245.567 45.25 243.85 46.4167 241.85 47.25C239.883 48.0833 237.683 48.5 235.25 48.5ZM235.25 42.35C237.65 42.35 239.583 41.4167 241.05 39.55C242.55 37.6833 243.3 35.1 243.3 31.8C243.3 28.5 242.55 25.9333 241.05 24.1C239.583 22.2333 237.65 21.3 235.25 21.3C232.85 21.3 230.9 22.2333 229.4 24.1C227.933 25.9333 227.2 28.5 227.2 31.8C227.2 35.1 227.933 37.6833 229.4 39.55C230.9 41.4167 232.85 42.35 235.25 42.35Z" fill="#111111"/>
</svg>
