<svg width="360" height="80" viewBox="0 0 360 80" fill="none" xmlns="http://www.w3.org/2000/svg">
<path d="M85.2136 64.247V15.753H102.546L112.419 35.7831L122.215 15.753H139.548V64.247H121.311V47.2289L117.016 55.9639H107.746L103.451 47.2289V64.247H85.2136Z" fill="black"/>
<path d="M143.317 64.247L162.007 15.753H180.922L199.611 64.247H180.621L177.154 55.2108H165.775L162.308 64.247H143.317ZM167.734 42.7861H175.119L171.427 33.5241L167.734 42.7861Z" fill="black"/>
<path d="M218.297 65C214.881 65 211.59 64.7239 208.425 64.1717C205.26 63.5693 202.597 62.7159 200.437 61.6114V47.9819C202.798 49.1365 205.461 50.0904 208.425 50.8434C211.389 51.5964 214.027 51.9729 216.338 51.9729C217.845 51.9729 219.026 51.7972 219.88 51.4458C220.734 51.0442 221.161 50.492 221.161 49.7892C221.161 48.8855 220.357 48.1827 218.749 47.6807C217.142 47.1787 215.032 46.4508 212.419 45.497C209.304 44.2922 206.842 43.0371 205.034 41.7319C203.225 40.4267 201.919 38.8705 201.115 37.0633C200.362 35.2058 199.985 32.8966 199.985 30.1355C199.985 20.0452 207.094 15 221.312 15C222.919 15 224.703 15.1255 226.662 15.3765C228.672 15.5773 230.606 15.8534 232.465 16.2048C234.374 16.5562 235.982 16.9327 237.288 17.3343V31.0392C234.525 29.8845 232.088 29.1064 229.978 28.7048C227.868 28.3032 226.009 28.1024 224.401 28.1024C223.145 28.1024 221.864 28.2279 220.558 28.4789C219.252 28.6797 218.599 29.1817 218.599 29.9849C218.599 30.6376 219.176 31.1647 220.332 31.5663C221.487 31.9177 223.321 32.4448 225.833 33.1476C229.852 34.252 232.867 35.5823 234.876 37.1386C236.886 38.6446 238.217 40.4518 238.871 42.5602C239.574 44.6185 239.926 47.003 239.926 49.7139C239.926 54.3323 238.117 58.0472 234.5 60.8584C230.882 63.6195 225.482 65 218.297 65Z" fill="black"/>
<path d="M268.153 65C262.677 65 258.005 64.1968 254.136 62.5904C250.268 60.9337 247.304 58.2731 245.244 54.6084C243.184 50.9438 242.154 46.0743 242.154 40C242.154 33.8755 243.184 29.006 245.244 25.3916C247.304 21.7269 250.268 19.0914 254.136 17.4849C258.005 15.8283 262.677 15 268.153 15C273.629 15 278.302 15.8283 282.17 17.4849C286.039 19.0914 289.003 21.7269 291.063 25.3916C293.123 29.006 294.153 33.8755 294.153 40C294.153 46.0743 293.123 50.9438 291.063 54.6084C289.003 58.2731 286.039 60.9337 282.17 62.5904C278.302 64.1968 273.629 65 268.153 65ZM268.153 49.5633C270.816 49.5633 272.7 48.8604 273.805 47.4548C274.961 45.999 275.539 43.5141 275.539 40C275.539 36.4859 274.961 34.0261 273.805 32.6205C272.7 31.1647 270.816 30.4367 268.153 30.4367C265.491 30.4367 263.581 31.1647 262.426 32.6205C261.321 34.0261 260.768 36.4859 260.768 40C260.768 43.5141 261.321 45.999 262.426 47.4548C263.581 48.8604 265.491 49.5633 268.153 49.5633Z" fill="black"/>
<path d="M297.9 64.247V15.753H313.198L326.763 34.7289V15.753H345V64.247H329.627L316.137 45.2711V64.247H297.9Z" fill="black"/>
<path d="M47.2328 50.325H61.4754V64.5564H47.2328V50.325Z" fill="black"/>
<path d="M30.619 50.325H44.8616V64.5564H30.619V50.325Z" fill="black"/>
<path d="M14 50.325H28.2426V64.5564H14V50.325Z" fill="black"/>
<path d="M47.2328 33.7228H61.4754V47.9543H47.2328V33.7228Z" fill="black"/>
<path d="M30.6087 33.7203H44.8513V47.9518H30.6087V33.7203Z" fill="black"/>
<path d="M14 33.7203H28.2426V47.9518H14V33.7203Z" fill="black"/>
<path d="M14 17.1166H61.4754V31.3481H14V17.1166Z" fill="black"/>
<path d="M85.2136 64.247V15.753H102.546L112.419 35.7831L122.215 15.753H139.548V64.247H121.311V47.2289L117.016 55.9639H107.746L103.451 47.2289V64.247H85.2136Z" stroke="black"/>
<path d="M143.317 64.247L162.007 15.753H180.922L199.611 64.247H180.621L177.154 55.2108H165.775L162.308 64.247H143.317ZM167.734 42.7861H175.119L171.427 33.5241L167.734 42.7861Z" stroke="black"/>
<path d="M218.297 65C214.881 65 211.59 64.7239 208.425 64.1717C205.26 63.5693 202.597 62.7159 200.437 61.6114V47.9819C202.798 49.1365 205.461 50.0904 208.425 50.8434C211.389 51.5964 214.027 51.9729 216.338 51.9729C217.845 51.9729 219.026 51.7972 219.88 51.4458C220.734 51.0442 221.161 50.492 221.161 49.7892C221.161 48.8855 220.357 48.1827 218.749 47.6807C217.142 47.1787 215.032 46.4508 212.419 45.497C209.304 44.2922 206.842 43.0371 205.034 41.7319C203.225 40.4267 201.919 38.8705 201.115 37.0633C200.362 35.2058 199.985 32.8966 199.985 30.1355C199.985 20.0452 207.094 15 221.312 15C222.919 15 224.703 15.1255 226.662 15.3765C228.672 15.5773 230.606 15.8534 232.465 16.2048C234.374 16.5562 235.982 16.9327 237.288 17.3343V31.0392C234.525 29.8845 232.088 29.1064 229.978 28.7048C227.868 28.3032 226.009 28.1024 224.401 28.1024C223.145 28.1024 221.864 28.2279 220.558 28.4789C219.252 28.6797 218.599 29.1817 218.599 29.9849C218.599 30.6376 219.176 31.1647 220.332 31.5663C221.487 31.9177 223.321 32.4448 225.833 33.1476C229.852 34.252 232.867 35.5823 234.876 37.1386C236.886 38.6446 238.217 40.4518 238.871 42.5602C239.574 44.6185 239.926 47.003 239.926 49.7139C239.926 54.3323 238.117 58.0472 234.5 60.8584C230.882 63.6195 225.482 65 218.297 65Z" stroke="black"/>
<path d="M268.153 65C262.677 65 258.005 64.1968 254.136 62.5904C250.268 60.9337 247.304 58.2731 245.244 54.6084C243.184 50.9438 242.154 46.0743 242.154 40C242.154 33.8755 243.184 29.006 245.244 25.3916C247.304 21.7269 250.268 19.0914 254.136 17.4849C258.005 15.8283 262.677 15 268.153 15C273.629 15 278.302 15.8283 282.17 17.4849C286.039 19.0914 289.003 21.7269 291.063 25.3916C293.123 29.006 294.153 33.8755 294.153 40C294.153 46.0743 293.123 50.9438 291.063 54.6084C289.003 58.2731 286.039 60.9337 282.17 62.5904C278.302 64.1968 273.629 65 268.153 65ZM268.153 49.5633C270.816 49.5633 272.7 48.8604 273.805 47.4548C274.961 45.999 275.539 43.5141 275.539 40C275.539 36.4859 274.961 34.0261 273.805 32.6205C272.7 31.1647 270.816 30.4367 268.153 30.4367C265.491 30.4367 263.581 31.1647 262.426 32.6205C261.321 34.0261 260.768 36.4859 260.768 40C260.768 43.5141 261.321 45.999 262.426 47.4548C263.581 48.8604 265.491 49.5633 268.153 49.5633Z" stroke="black"/>
<path d="M297.9 64.247V15.753H313.198L326.763 34.7289V15.753H345V64.247H329.627L316.137 45.2711V64.247H297.9Z" stroke="black"/>
<path d="M47.2328 50.325H61.4754V64.5564H47.2328V50.325Z" stroke="black"/>
<path d="M30.619 50.325H44.8616V64.5564H30.619V50.325Z" stroke="black"/>
<path d="M14 50.325H28.2426V64.5564H14V50.325Z" stroke="black"/>
<path d="M47.2328 33.7228H61.4754V47.9543H47.2328V33.7228Z" stroke="black"/>
<path d="M30.6087 33.7203H44.8513V47.9518H30.6087V33.7203Z" stroke="black"/>
<path d="M14 33.7203H28.2426V47.9518H14V33.7203Z" stroke="black"/>
<path d="M14 17.1166H61.4754V31.3481H14V17.1166Z" stroke="black"/>
</svg>
